<svg width="400" height="110" viewBox="0 0 400 110" xmlns="http://www.w3.org/2000/svg" role="img" aria-label="Crewatt logo">
<g transform="translate(6,12) scale(0.96)">
<g stroke="#F59E0B" stroke-width="3.4" stroke-linecap="round">
<line x1="83" y1="50" x2="93" y2="50"/>
<line x1="80.6" y1="37.6" x2="89.9" y2="33.9"/>
<line x1="73.3" y1="26.7" x2="80.4" y2="19.6"/>
<line x1="62.9" y1="19.6" x2="66.8" y2="10.4"/>
<line x1="50" y1="17" x2="50" y2="7"/>
<line x1="37.1" y1="19.6" x2="33.2" y2="10.4"/>
<line x1="26.7" y1="26.7" x2="19.6" y2="19.6"/>
<line x1="19.4" y1="37.6" x2="10.1" y2="33.9"/>
<line x1="17" y1="50" x2="7" y2="50"/>
</g>
<circle cx="50" cy="50" r="30" fill="#F59E0B"/>
<g fill="#1E293B">
<path d="M26,72 Q26,60 37,60 Q48,60 48,72 Z"/>
<circle cx="37" cy="54" r="5"/>
<path d="M30,53 Q37,45 44,53 Z"/>
<rect x="28.5" y="51.8" width="17" height="2.2" rx="1.1"/>
<path d="M52,72 Q52,60 63,60 Q74,60 74,72 Z"/>
<circle cx="63" cy="54" r="5"/>
<path d="M56,53 Q63,45 70,53 Z"/>
<rect x="54.5" y="51.8" width="17" height="2.2" rx="1.1"/>
<path d="M39,70 Q39,57 50,57 Q61,57 61,70 Z"/>
<circle cx="50" cy="51" r="5.2"/>
<path d="M42.5,50 Q50,41.5 57.5,50 Z"/>
<rect x="41" y="48.8" width="18" height="2.3" rx="1.1"/>
</g>
</g>
<text x="118" y="66" font-family="Arial, Helvetica, sans-serif" font-size="54" font-weight="700" letter-spacing="-1.5"><tspan fill="#F8FAFC">Cre</tspan><tspan fill="#F59E0B">watt</tspan></text>
<text x="120" y="92" font-family="Arial, Helvetica, sans-serif" font-size="14" font-weight="400" fill="#94A3B8">field service for solar crews</text>
</svg>
